<svg width="60" height="60" viewBox="0 0 60 60" fill="none" xmlns="http://www.w3.org/2000/svg">
<path d="M21.2619 11.4486C23.8304 9.48598 25.4001 8.50467 27.16 11.215V21.8224H25.4952C25.1147 21.8224 24.7817 22.1495 24.7817 22.5234V23.271H30.4896V22.5234C30.4896 22.1495 30.1567 21.8224 29.7761 21.8224H28.1113V0.46729C28.1113 0.233645 27.9211 0 27.6357 0C27.3978 0 27.16 0.233645 27.16 0.46729V1.1215C24.8769 -1.16822 22.5461 0.654206 20.6435 2.1028C18.075 4.06542 16.5053 5.04673 14.6502 2.24299C14.5551 2.05607 14.3173 1.96262 14.127 2.05607C13.9368 2.1028 13.7941 2.28972 13.7941 2.52336V11.1682C13.7941 11.2617 13.8416 11.3551 13.8892 11.4019C16.0297 14.6729 18.2177 13.8318 21.2619 11.4486Z" fill="#66FF66"/>
<path d="M28.9199 55.9813L30.9652 53.5047C31.0604 53.4112 31.2031 53.3178 31.3458 53.3178H51.038C52.5601 49.9065 54.6529 47.9907 56.6983 46.3551H37.6244C37.4817 46.3551 37.339 46.3084 37.2915 46.2149L34.1997 42.8505H31.9166H23.4023H0.903748C3.56742 45.514 6.42136 48.8318 7.94347 55.9813H28.9199ZM29.681 45.0467C31.4409 45.0467 32.8679 46.4486 32.8679 48.1776C32.8679 49.9065 31.4409 51.3084 29.681 51.3084C27.921 51.3084 26.4941 49.9065 26.4941 48.1776C26.4941 46.4486 27.921 45.0467 29.681 45.0467ZM20.8338 45.0467C22.5937 45.0467 24.0207 46.4486 24.0207 48.1776C24.0207 49.9065 22.5937 51.3084 20.8338 51.3084C19.0738 51.3084 17.6469 49.9065 17.6469 48.1776C17.6469 46.4486 19.0738 45.0467 20.8338 45.0467ZM11.939 45.0467C13.6989 45.0467 15.1259 46.4486 15.1259 48.1776C15.1259 49.9065 13.6989 51.3084 11.939 51.3084C10.1791 51.3084 8.75208 49.9065 8.75208 48.1776C8.79965 46.4486 10.2266 45.0467 11.939 45.0467Z" fill="#66FF66"/>
<path d="M56.2226 44.5794C56.2226 44.0187 55.747 43.5514 55.1762 43.5514H54.7481H40.8589H40.4784C39.9076 43.5514 39.4319 44.0187 39.4319 44.5794V45.4673H56.2226V44.5794Z" fill="#66FF66"/>
<path d="M59.9327 32.8038C59.8376 32.5701 59.6474 32.4299 59.4095 32.3365C59.1717 32.243 58.9339 32.2897 58.696 32.3832L48.4694 37.8972C48.5646 38.5047 48.8024 39.1122 49.2305 39.5327L53.7016 37.1028L59.4571 33.972C59.79 33.8318 59.9803 33.5047 59.9803 33.1776C60.0279 33.0841 59.9803 32.9439 59.9327 32.8038Z" fill="#66FF66"/>
<path d="M54.2725 40.7944C54.2725 39.9065 54.0822 39.0187 53.7017 38.2243L50.0867 40.1869C50.2294 40.2337 50.3721 40.3271 50.5148 40.3738C50.7526 40.4673 50.8953 40.7009 50.8002 40.9813C50.7526 41.1682 50.5623 41.3084 50.3245 41.3084C50.2769 41.3084 50.2294 41.3084 50.1818 41.3084C48.0889 40.6542 46.9949 38.4579 47.6608 36.4019C47.756 36.1682 47.9938 36.028 48.2792 36.1215C48.517 36.215 48.6597 36.4486 48.5646 36.729C48.5646 36.7757 48.517 36.8224 48.517 36.9159L51.1807 35.4673C50.1818 34.8598 48.9927 34.5327 47.8035 34.5327C44.2361 34.5327 41.3346 37.3832 41.3346 40.8879V42.6168H54.2725V40.7944Z" fill="#66FF66"/>
<path d="M21.3094 25.2337C21.3094 25.7944 21.785 26.2617 22.3558 26.2617H23.4498H31.9165H33.0105C33.5813 26.2617 34.057 25.7944 34.057 25.2337C34.057 24.6729 33.5813 24.2056 33.0105 24.2056H22.3558C21.785 24.2056 21.3094 24.6729 21.3094 25.2337Z" fill="#66FF66"/>
<path d="M22.9266 31.4954H15.1259H12.5573H11.1304C10.2266 31.4954 9.418 32.0561 9.08504 32.8972L5.42249 41.9159H22.9266V31.4954ZM12.7476 39.0187C12.7476 39.2991 12.5573 39.486 12.2719 39.486C11.9865 39.486 11.7963 39.2991 11.7963 39.0187V34.3458C11.7963 34.0655 11.9865 33.8785 12.2719 33.8785C12.5573 33.8785 12.7476 34.0655 12.7476 34.3458V39.0187ZM16.5053 39.0187C16.5053 39.2991 16.315 39.486 16.0296 39.486C15.7442 39.486 15.554 39.2991 15.554 39.0187V34.3458C15.554 34.0655 15.7442 33.8785 16.0296 33.8785C16.315 33.8785 16.5053 34.0655 16.5053 34.3458V39.0187ZM20.263 39.0187C20.263 39.2991 20.0727 39.486 19.7873 39.486C19.5019 39.486 19.3117 39.2991 19.3117 39.0187V34.3458C19.3117 34.0655 19.5019 33.8785 19.7873 33.8785C20.0727 33.8785 20.263 34.0655 20.263 34.3458V39.0187Z" fill="#66FF66"/>
<path d="M26.7319 31.2617H31.4409V27.1963H23.878V29.0654H28.587C28.8724 29.0654 29.0626 29.2524 29.0626 29.5327C29.0626 29.8131 28.8724 30 28.587 30H23.878V33.3645H28.587C28.8724 33.3645 29.0626 33.5514 29.0626 33.8318C29.0626 34.1122 28.8724 34.2991 28.587 34.2991H23.878V37.6636H28.587C28.8724 37.6636 29.0626 37.8505 29.0626 38.1309C29.0626 38.4112 28.8724 38.5982 28.587 38.5982H23.878V41.8692H31.4409V40.7477H26.7319C26.4465 40.7477 26.2563 40.5608 26.2563 40.2804C26.2563 40 26.4465 39.8131 26.7319 39.8131H31.4409V36.4486H26.7319C26.4465 36.4486 26.2563 36.2617 26.2563 35.9813C26.2563 35.701 26.4465 35.514 26.7319 35.514H31.4409V32.1496H26.7319C26.4465 32.1496 26.2563 31.9626 26.2563 31.6823C26.2563 31.4019 26.4465 31.2617 26.7319 31.2617Z" fill="#66FF66"/>
<path d="M57.7923 59.0654H49.3256C49.6586 57.1962 50.1342 55.6542 50.6574 54.2523H31.536L27.5405 59.0654H26.3038V59.0187L28.0637 56.9159H8.13373C8.27643 57.6168 8.37156 58.3177 8.51425 59.0654H0.475657C0.190263 59.0654 0 59.2523 0 59.5327C0 59.8131 0.190263 60 0.475657 60H57.7923C58.0777 60 58.2679 59.8131 58.2679 59.5327C58.2679 59.2523 58.0777 59.0654 57.7923 59.0654Z" fill="#66FF66"/>
<path d="M7.46784 21.729C7.18245 21.729 6.99219 21.9159 6.99219 22.1963C6.99219 22.4767 7.18245 22.6636 7.46784 22.6636H13.033V30.5608H14.6503V22.6636H20.2154C20.5008 22.6636 20.6911 22.4767 20.6911 22.1963C20.6911 21.9159 20.5008 21.729 20.2154 21.729H14.6503V19.6262H20.2154C20.5008 19.6262 20.6911 19.4393 20.6911 19.1589C20.6911 18.8785 20.5008 18.6916 20.2154 18.6916H14.6503V17.1496C14.6503 16.729 14.2697 16.3552 13.8416 16.3552C13.4136 16.3552 13.033 16.729 13.033 17.1496V18.6916H7.46784C7.18245 18.6916 6.99219 18.8785 6.99219 19.1589C6.99219 19.4393 7.18245 19.6262 7.46784 19.6262H13.033V21.729H7.46784Z" fill="#66FF66"/>
</svg>
