<svg width="60" height="60" viewBox="0 0 60 60" fill="none" xmlns="http://www.w3.org/2000/svg">
<path d="M59.9522 39.6234C59.9282 38.9735 59.988 38.2618 59.8923 37.5811C59.7847 37.1169 59.378 36.8229 59.0191 36.9622C55.3469 38.9116 51.5311 40.2886 47.6316 40.9075C44.1388 41.6347 31.1603 41.2015 27.4641 41.3098L27.2368 37.2562H27.9187C28.8158 37.2562 29.5574 36.3124 29.5574 35.1365V34.4248C29.5574 33.249 28.8278 32.3052 27.9187 32.3052H27.177V30.7116C28.0502 30.6652 28.744 29.7369 28.744 28.5919V27.8802C28.744 26.5651 27.8589 25.6368 26.878 25.7606V19.4481H27.2249C27.6196 19.4481 27.9426 19.0303 27.9426 18.5198C27.9426 18.0092 27.6196 17.5915 27.2249 17.5915H26.878V16.2918H27.2249C27.6196 16.2918 27.9426 15.8741 27.9426 15.3635C27.9426 14.853 27.6196 14.4352 27.2249 14.4352H26.878V13.1356H27.2249C27.6196 13.1356 27.9426 12.7178 27.9426 12.2073C27.9426 11.6967 27.6196 11.279 27.2249 11.279H26.878C26.9617 9.90197 26.1244 8.69517 25.0478 8.69517C23.9713 8.69517 23.1459 9.90197 23.2297 11.279H22.6077V3.32644H23.0383C23.433 3.32644 23.756 2.9087 23.756 2.39813C23.756 1.88756 23.433 1.46982 23.0383 1.46982H22.6077V0.92831C22.6077 0.417739 22.2847 0 21.89 0C21.4952 0 21.1722 0.417739 21.1722 0.92831V1.46982H20.7416C20.3469 1.46982 20.0239 1.88756 20.0239 2.39813C20.0239 2.9087 20.3469 3.32644 20.7416 3.32644H21.1722V11.2635C20.2273 11.3099 20.2273 13.0737 21.1722 13.1201H23.2297V14.4197H22.8828C22.488 14.4197 22.1651 14.8375 22.1651 15.3481C22.1651 15.8586 22.488 16.2764 22.8828 16.2764H23.2297V17.576H22.8828C22.488 17.576 22.1651 17.9937 22.1651 18.5043C22.1651 19.0149 22.488 19.4326 22.8828 19.4326H23.2297V25.7451H22.0096V23.9659C22.3325 23.873 22.5837 23.5017 22.5837 23.053V21.8772C22.5837 20.0979 21.4713 18.659 20.0957 18.659H19.6172C18.2416 18.659 17.1292 20.0979 17.1292 21.8772V23.053C17.1292 23.5017 17.3684 23.873 17.7033 23.9659V25.7451H16.3278C15.933 25.7451 15.61 26.1629 15.61 26.6734C15.61 28.298 15.61 31.5935 15.61 33.218V36.2814L15.323 41.2943H10.6938V38.695C10.6938 38.1845 10.3708 37.7667 9.97608 37.7667H9.33014V34.5022C9.33014 33.9916 9.00718 33.5739 8.61244 33.5739C8.2177 33.5739 7.89474 33.9916 7.89474 34.5022V37.7822H7.2488C6.85407 37.7822 6.5311 38.1999 6.5311 38.7105V41.3098H0.717703C0.322967 41.3098 0 41.7275 0 42.2381V45.6109C0 46.1215 0.322967 46.5393 0.717703 46.5393H3.32536V47.9163H2.38038C1.98565 47.9163 1.66268 48.334 1.66268 48.8446C1.66268 51.5676 2.61962 53.5944 4.09091 54.1823L3.12201 58.8394C3.0622 59.1179 3.11005 59.4118 3.24163 59.6439C3.37321 59.876 3.58852 59.9997 3.81579 59.9997H54.9043C55.3947 60.0152 55.7656 59.319 55.5742 58.7311C55.0598 56.9363 54.7249 55.2499 54.7129 53.4242C54.689 49.0921 57.4282 44.9302 59.7847 42.0215C59.9282 41.8358 60 41.5883 60 41.3253C59.9522 40.7683 59.9522 40.1803 59.9522 39.6234ZM24.6531 11.0624C24.6651 10.3971 25.4187 10.3971 25.4306 11.0624V11.279H24.6531V11.0624ZM24.6531 13.1356H25.4306V14.4352H24.6531V13.1356ZM24.6531 16.2918H25.4306V17.5915H24.6531V16.2918ZM25.4306 19.4481V25.4821H24.6531V19.4481H25.4306ZM19.1148 23.9968H20.5622V25.4821H19.1148V23.9968ZM18.5407 21.8772C18.5407 21.1345 19.0072 20.5156 19.5933 20.5156H20.0718C20.6459 20.5156 21.1244 21.119 21.1244 21.8772V22.1247H18.5407V21.8772ZM43.0144 44.2185L43.2536 43.1664C44.2345 43.1509 45.2273 43.089 46.2201 42.9807L45.5383 44.2185H43.0144ZM38.9952 44.2185L39.0789 43.1819H41.7464L41.5072 44.2185H38.9952ZM35.0598 44.2185V43.1664H37.6316L37.5478 44.203H35.0598V44.2185ZM33.4569 44.2185L32.1651 43.1819H33.6244V44.2185H33.4569ZM48.122 42.7022C48.9952 42.5475 49.8684 42.3619 50.7416 42.1453C50.1914 42.9034 49.7249 43.5687 49.2703 44.2185H47.2966L48.122 42.7022ZM15.2751 43.1664H15.9689H24.7249V50.0668H15.2751V43.1664ZM17.0215 34.1618H18.0263C18.0263 34.6724 18.0144 35.0746 18.0144 35.3995H17.0215V34.1618ZM19.4498 35.3995C19.4498 35.0437 19.4498 34.6105 19.4617 34.1618H20.6699C20.6699 34.6724 20.6579 35.0746 20.6579 35.3995H19.4498ZM22.0933 35.3995C22.0933 35.0437 22.0933 34.6105 22.1053 34.1618H23.1818C23.1699 34.6724 23.1699 35.0746 23.1699 35.3995H22.0933ZM24.6053 35.3995C24.6053 35.0437 24.6053 34.6105 24.6172 34.1618H25.7536C25.7536 34.6878 25.7416 35.0901 25.7536 35.3995H24.6053ZM26.7225 35.1675C26.7584 35.1829 26.7823 35.1984 26.8062 35.2139C26.7823 35.1984 26.7464 35.1829 26.7225 35.1675ZM26.8301 35.2294C26.8541 35.2448 26.89 35.2758 26.9139 35.3067C26.878 35.2758 26.8541 35.2603 26.8301 35.2294ZM25.7297 32.3052H17.0096V30.7116H25.7297V32.3052ZM26.0167 41.3098H16.7344L16.9617 37.2562H25.7775L26.0167 41.3098ZM28.11 34.4248V35.1365C28.11 35.2758 28.0144 35.3995 27.9067 35.3995H27.177C27.177 35.1365 27.177 34.7497 27.177 34.1618H27.8947C28.0144 34.1618 28.11 34.2701 28.11 34.4248ZM17.0215 27.6017H27.1053C27.2129 27.6017 27.3086 27.7255 27.3086 27.8648V28.5765C27.3086 28.7157 27.2129 28.8395 27.1053 28.8395H17.0215V27.6017ZM7.95455 39.6388H9.25837V41.3098H7.95455V39.6388ZM1.43541 43.1664C5.01196 43.1664 10.299 43.1664 13.8397 43.1664V44.6826H1.43541V43.1664ZM5.52632 54.3525H6.51914V58.1586H4.73684L5.52632 54.3525ZM7.95455 58.1586V54.3525H53.2775C53.3612 55.6212 53.5646 56.8744 53.8756 58.1586H7.95455ZM54.8325 46.7868C53.9713 48.6589 53.445 50.6238 53.3014 52.4959H4.97608C3.89952 52.4959 3.3134 51.2427 3.14593 49.7729H4.04306C4.4378 49.7729 4.76077 49.3551 4.76077 48.8446V46.5393H13.8397V50.9951C13.8397 51.5057 14.1627 51.9235 14.5574 51.9235H25.4426C25.8373 51.9235 26.1603 51.5057 26.1603 50.9951V43.1664C26.567 43.1664 28.9952 43.1664 29.4498 43.1664L32.8708 45.9204C32.9904 46.0132 33.122 46.0596 33.2536 46.0596H38.2057C40.6459 46.0596 47.0933 46.0596 49.6053 46.0596C49.8565 46.0596 50.0718 45.8894 50.2034 45.6419C50.4545 45.2551 52.1292 42.9343 53.2416 41.4026C55.012 40.8147 56.7823 40.0875 58.5167 39.2211C58.5167 39.8245 58.5167 40.3969 58.5287 41.0003C57.201 42.7177 55.8493 44.5743 54.8325 46.7868Z" fill="#6666FF"/>
<path d="M23.2536 43.6769H16.6388C16.244 43.6769 15.9211 44.0947 15.9211 44.6053V48.4732C15.9211 48.9838 16.244 49.4015 16.6388 49.4015H23.2536C23.6483 49.4015 23.9713 48.9838 23.9713 48.4732V44.6053C23.9713 44.0947 23.6483 43.6769 23.2536 43.6769ZM22.5359 47.5449H17.3565V45.5336H22.5359V47.5449Z" fill="#6666FF"/>
<path d="M39.9761 28.6074L38.445 29.1644C38.0024 29.3036 37.7751 30.0153 38.0143 30.5104L38.9474 32.692C39.0789 32.9859 39.3182 33.1716 39.5694 33.1716C39.6053 33.1716 39.6531 33.1716 39.689 33.1561L42.6196 32.4908L42.0813 33.6203C41.7584 34.2856 42.2249 35.1675 42.811 35.0127C43.6603 34.8735 44.5933 35.1829 45.3947 34.3629C46.7943 32.8931 48.0622 31.4697 49.4498 29.9844C51.9856 29.4738 54.4139 28.4063 56.6627 26.8281C57.0335 26.5651 57.799 26.0236 58.0502 25.0025C58.3254 23.9194 57.7273 22.9911 56.9498 23.0994C55.8254 23.1613 54.701 23.2387 53.5646 23.3006C51.6388 21.15 49.6531 22.0009 48.445 24.43L46.3158 25.0643L43.756 22.8519C43.5885 22.6972 43.3732 22.6662 43.1699 22.7281L41.0526 23.4398L40.8254 23.2387C40.6579 23.0994 40.4665 23.0375 40.2632 23.0994L37.6794 23.8111C37.1292 23.9504 36.9139 24.9096 37.3325 25.3893C37.3804 25.4047 39.9761 28.6074 39.9761 28.6074ZM51.0287 23.9658C51.3995 23.8575 51.8421 23.9968 52.2727 24.3526C51.6866 25.0489 50.8254 25.1262 50.012 24.8632C50.311 24.43 50.6459 24.0742 51.0287 23.9658ZM43.2655 24.6466L44.4378 25.6523L43.7799 25.8534L42.6555 24.8477L43.2655 24.6466ZM40.299 25.0179C40.299 25.0179 40.323 25.0489 40.3708 25.0798C40.4426 25.1417 40.5263 25.2191 40.5383 25.2191L43.2177 27.6172C43.3852 27.7719 43.5885 27.8183 43.7919 27.7564C45.0359 27.3851 47.5598 26.627 48.8038 26.2402C50.3828 27.2459 52.512 27.1221 53.6244 25.1572C54.4976 25.1108 55.3708 25.0489 56.244 25.0025C54.0191 26.6425 51.5909 27.71 49.055 28.1897C48.9234 28.2206 48.8038 28.2825 48.7081 28.3908C47.9785 29.1489 47.2727 29.9225 46.5909 30.6651C45.9091 31.4078 45.2153 32.1659 44.4976 32.924C44.3899 33.0323 44.2105 33.0788 44.0072 33.1097L45.5383 29.8761L46.9976 29.35C47.9067 28.9787 47.5359 27.2768 46.6148 27.5553L44.8804 28.1742C44.701 28.2361 44.5574 28.3908 44.4617 28.5919L43.6124 30.3867L39.9402 31.2221L39.701 30.6497L41.5789 29.9689C42.1053 29.7987 42.2847 28.8704 41.878 28.4063L39.3421 25.2964L40.299 25.0179Z" fill="#6666FF"/>
</svg>
