<svg width="60" height="66" viewBox="0 0 60 66" fill="none" xmlns="http://www.w3.org/2000/svg">
<path d="M11.4726 12.9293C11.1211 13.1355 10.8633 13.4191 10.6641 13.8059C10.3945 14.3344 10.3711 14.502 10.3359 16.7191L10.2891 19.0781H8.20312C6.2578 19.0781 6.09374 19.091 5.61327 19.3746C4.80468 19.8387 4.52343 20.5348 4.52343 21.9785C4.52343 22.9711 4.55859 23.216 4.80468 23.693C4.95702 23.9895 5.20312 24.3246 5.35546 24.4277L5.62499 24.6211V28.2949V31.9559L3.46874 31.9945L1.31249 32.0332L0.867179 32.4328C0.621086 32.6391 0.316398 33.0387 0.187492 33.3223C-0.0351643 33.7863 -0.0351643 33.9152 0.0937419 35.5652C0.433586 40.1156 2.06249 44.0344 4.91015 47.1926C6.3164 48.7395 10.1133 51.8203 10.6172 51.8203C10.9687 51.8203 11.4844 51.2789 11.4844 50.918C11.4844 50.4152 11.2734 50.1832 9.64452 48.907C7.40624 47.1668 6.59765 46.432 5.81249 45.4781C5.14452 44.6789 4.10155 43.1707 4.10155 43.0031C4.10155 42.9645 13.2305 42.9258 24.3867 42.9258C39.4336 42.9258 44.7305 42.8871 44.918 42.784C45.2578 42.5777 45.3516 42.423 45.3516 41.959C45.3516 41.4949 45.2578 41.3402 44.918 41.134C44.7305 41.0309 39.3164 40.9922 23.8711 40.9922H3.08202L2.77734 40.1156C2.61327 39.6387 2.36718 38.7879 2.22655 38.2207C1.95702 37.0605 1.67577 34.4438 1.79296 34.1215C1.86327 33.9152 2.62499 33.9023 11.2734 33.9023C17.7539 33.9023 20.8242 33.9539 21.1523 34.0441C21.5156 34.1602 22.0195 34.6242 23.4492 36.1582C25.3711 38.2207 25.9219 38.6461 27.0469 38.9168C28.0312 39.1488 41.9414 39.1102 42.75 38.8781C43.6289 38.6203 44.0976 38.2852 46.5586 36.1195C48.1055 34.766 48.9023 34.1473 49.2539 34.0441C49.5937 33.941 51.0352 33.9023 53.9648 33.9281L58.1836 33.9668L58.1602 35.1656C58.1133 36.7512 57.7734 38.2078 57.0937 39.7031L56.543 40.9277L53.6836 40.9922C50.8711 41.0566 50.8359 41.0566 50.6133 41.366C50.3086 41.7785 50.332 42.2297 50.6836 42.6035C50.9648 42.9258 50.9883 42.9258 53.1445 42.9258C54.3398 42.9258 55.3125 42.9387 55.3125 42.9645C55.3125 42.9902 55.2305 43.2867 55.125 43.6219C54.9844 44.073 54.9492 44.55 54.9844 45.4137C55.0664 47.3602 55.8047 48.7652 57.3281 49.848C58.0898 50.3895 58.3828 50.8277 58.1836 51.1629C58.1367 51.266 51.3047 51.3047 35.6719 51.3047H13.2305L12.9492 51.627C12.7851 51.7945 12.6562 52.091 12.6562 52.2715C12.6562 52.452 12.7851 52.7484 12.9492 52.916L13.2305 53.2383H35.8242C57.6094 53.2383 58.4414 53.2254 58.8281 52.9934C59.0508 52.8645 59.3906 52.5422 59.5898 52.2715C59.8945 51.859 59.9414 51.6914 59.9414 51.0082C59.9297 49.8352 59.5898 49.2422 58.418 48.3398C57.2227 47.4246 56.8125 46.7285 56.7422 45.5555C56.6719 44.3051 56.7656 43.9828 57.7031 42.423C59.25 39.8707 59.918 37.6277 59.9297 34.9852C59.9414 33.4254 59.9414 33.4125 59.5898 32.9355C58.8516 31.9301 59.0039 31.9559 53.6719 31.9945C49.1367 32.0332 48.9023 32.0461 48.3984 32.3039L47.8711 32.5746L47.0859 31.7625C46.1719 30.8215 45.1523 30.1641 43.9453 29.7516C43.2422 29.5195 42.7969 29.4551 41.7187 29.4551C40.5469 29.4551 40.2305 29.5066 39.3398 29.8289C38.1562 30.2543 37.1133 30.9375 36.2578 31.8656L35.6484 32.5102L35.5664 31.7496C35.4609 30.7184 35.1094 30.0609 34.4648 29.6871C33.9726 29.4035 33.8437 29.3906 31.2656 29.3906H28.5937V26.7738C28.5937 24.0797 28.5 23.3063 28.1484 23.1129C28.043 23.0613 23.0976 22.984 17.168 22.9453L6.38671 22.8809V21.9785V21.0762L17.0859 21.0375L27.7969 21.0117L27.9726 21.5145C28.3828 22.6746 29.6484 22.4555 29.6484 21.2309C29.6484 20.4703 29.2383 19.7484 28.6055 19.3746C28.125 19.091 27.9609 19.0781 26.0156 19.0781H23.9414L23.8711 17.9695C23.7422 15.907 23.0625 15.2109 21.2109 15.2109C19.3594 15.2109 18.6797 15.907 18.5508 17.9695L18.4805 19.0781H17.1094H15.7266L15.6797 16.7191C15.6445 14.502 15.6211 14.3344 15.3516 13.8059C14.9062 12.9422 14.2969 12.6328 13.0078 12.6328C12.1641 12.6328 11.8945 12.6844 11.4726 12.9293ZM13.8047 16.848L13.8281 19.0781H13.0078H12.1875V16.9125C12.1875 15.7137 12.2226 14.6953 12.2695 14.6438C12.3164 14.5922 12.668 14.5664 13.0664 14.5922L13.7695 14.6309L13.8047 16.848ZM22.0078 18.1371L22.043 19.0781H21.2109H20.3906V18.2016C20.3906 17.7117 20.4258 17.2734 20.4726 17.2219C20.5195 17.1703 20.8711 17.1445 21.2695 17.1703L21.9726 17.209L22.0078 18.1371ZM26.7187 30.8086C26.7187 34.0699 26.6836 36.7383 26.6484 36.7383C26.6133 36.7383 25.7578 35.8617 24.7617 34.7918C23.2851 33.2191 22.7812 32.768 22.1601 32.4328L21.3867 32.0332L14.4492 31.9945L7.49999 31.9559V28.4238V24.8789H17.1094H26.7187V30.8086ZM33.7266 34.2504L33.75 37.125H31.1719H28.5937V34.2246V31.3242L31.1484 31.35L33.6914 31.3887L33.7266 34.2504ZM43.1016 31.5176C44.0976 31.7754 45.082 32.3555 45.8203 33.1031L46.4414 33.7219L44.6719 35.2688C43.6172 36.1969 42.7031 36.893 42.4336 36.9703C42.1406 37.0734 40.875 37.125 38.8008 37.125C35.6601 37.125 35.6133 37.125 35.6719 36.8672C35.707 36.7254 35.7773 36.4805 35.8125 36.3129C35.9414 35.7457 36.2695 34.9852 36.7031 34.2762C38.0625 32.0203 40.6758 30.8859 43.1016 31.5176Z" fill="#FFFF66"/>
<path d="M9.64452 26.9672C9.19921 27.1992 9.02343 28.3207 9.2578 29.2746C9.51562 30.2672 10.6523 30.2414 10.8984 29.2488L11.0273 28.7461H11.8828C12.9375 28.7461 13.3594 28.4754 13.3594 27.7793C13.3594 27.4699 13.2773 27.2766 13.0547 27.0832C12.7734 26.8383 12.5859 26.8125 11.3203 26.8254C10.5469 26.8254 9.78515 26.8899 9.64452 26.9672Z" fill="#FFFF66"/>
<path d="M15.6094 26.9027C14.9414 27.1992 14.9648 29.6742 15.6445 29.9578C16.207 30.1898 16.875 29.7387 16.875 29.1199V28.7461H17.625C18.5625 28.7461 18.7148 28.6816 18.9375 28.2047C19.0898 27.8824 19.0898 27.7535 18.9727 27.4441C18.9023 27.225 18.7383 27.0059 18.6211 26.9414C18.4102 26.8125 15.8789 26.7738 15.6094 26.9027Z" fill="#FFFF66"/>
<path d="M21.1641 27.0832C20.8828 27.3281 20.8594 27.4184 20.8594 28.4238C20.8594 29.4293 20.8828 29.5195 21.1641 29.7645C21.75 30.2672 22.4297 29.9707 22.582 29.1328C22.6406 28.7461 22.6523 28.7461 23.4609 28.7461C24.5977 28.7461 24.9609 28.5141 24.9609 27.7793C24.9609 26.9672 24.6211 26.8125 22.875 26.8125C21.6328 26.8125 21.4453 26.8383 21.1641 27.0832Z" fill="#FFFF66"/>
</svg>
