<svg width="60" height="60" viewBox="0 0 60 60" fill="none" xmlns="http://www.w3.org/2000/svg">
<path d="M27.9957 0.0773046C25.6034 0.466065 23.1077 1.67256 21.194 3.36166C20.1077 4.32686 19.9138 4.9167 20.4957 5.50654C21.0129 6.05617 21.4396 5.94892 22.4741 5.05075C24.2327 3.52252 25.9655 2.66457 28.0086 2.28922C31.5388 1.64575 34.8879 2.66457 37.7327 5.22503C38.4698 5.8819 38.9095 5.98914 39.4009 5.6406C39.7629 5.37249 39.8922 4.74243 39.6724 4.32686C39.4138 3.83085 37.9784 2.59754 36.8793 1.92727C34.7327 0.626931 32.9224 0.0907101 30.4526 0.010277C29.5345 -0.0165341 28.4224 0.010277 27.9957 0.0773046Z" fill="#FF66FF"/>
<path d="M28.3836 4.36705C26.7543 4.67538 25.0474 5.54673 23.8707 6.65939C23.1465 7.34307 23.0043 7.70502 23.2241 8.32168C23.3146 8.54957 23.9224 8.92493 24.2327 8.92493C24.3362 8.92493 24.7888 8.6166 25.2414 8.24124C28.1896 5.78803 31.8362 5.78803 34.7715 8.24124C35.6638 8.99195 35.7802 9.01877 36.3233 8.72384C36.7371 8.50936 36.8534 8.28146 36.8534 7.71843C36.8534 6.9141 34.694 5.31884 32.7414 4.67538C31.6293 4.30002 29.4957 4.15256 28.3836 4.36705Z" fill="#FF66FF"/>
<path d="M28.7974 8.65684C27.6336 8.96517 26.2241 9.97059 26.0689 10.6006C25.9784 10.9894 26.2629 11.6597 26.5732 11.7937C27.0258 11.968 27.4655 11.8608 28.0474 11.4184C28.7457 10.8956 29.3405 10.6677 30 10.6677C30.6595 10.6677 31.2543 10.8956 31.9526 11.4184C32.806 12.0618 33.4655 12.0216 33.8276 11.3245C34.0862 10.8017 33.9439 10.3593 33.3879 9.84994C32.5732 9.11263 31.4224 8.64344 30.2845 8.57641C29.7414 8.5496 29.0689 8.58982 28.7974 8.65684Z" fill="#FF66FF"/>
<path d="M29.2888 14.2202L28.9655 14.5419V19.0462V23.537H28.2543C27.6595 23.537 27.4784 23.5906 27.2198 23.8721C26.8966 24.1939 26.8966 24.1939 26.8966 27.0895V29.9717H26.1853C25.5905 29.9717 25.4095 30.0253 25.1509 30.3068C24.8276 30.6285 24.8276 30.6285 24.8276 33.5241V36.4063H22.7586H20.6897V33.5241C20.6897 30.6285 20.6897 30.6285 20.3664 30.3068C20.069 29.9851 19.9914 29.9717 18.2974 29.9717H16.5517V24.9446V19.9041L16.2284 19.5824C16.0345 19.3679 15.7629 19.2472 15.5172 19.2472C15.2716 19.2472 15 19.3679 14.806 19.5824L14.4828 19.9041V24.9446V29.9717H13.7716C13.1767 29.9717 12.9957 30.0253 12.7371 30.3068C12.4138 30.6285 12.4138 30.6285 12.4138 33.5241V36.4063H11.1853C10.0474 36.4063 9.9181 36.4331 9.63362 36.7414C9.31035 37.0632 9.31035 37.0632 9.31035 39.9588V42.841H4.97845H0.633621L0.323276 43.1761C0.142241 43.3504 0 43.6453 0 43.8196C0 44.6641 1.07328 51.7824 1.24138 52.0506C1.60345 52.6404 2.54741 52.6136 2.93534 51.9969C3.14224 51.6618 3.14224 51.5143 2.72845 48.5517C2.49569 46.8492 2.27586 45.3478 2.23707 45.2137C2.18534 44.9993 3.18103 44.9858 21.8793 44.9858H41.5733L49.3966 43.0689C53.7026 42.0098 57.2328 41.1921 57.2586 41.2323C57.2716 41.2725 56.4957 43.538 55.5388 46.2594C54.5819 48.9807 53.7931 51.3535 53.7931 51.5143C53.7931 52.2919 54.8664 52.761 55.4612 52.2516C55.7457 52.0103 60 40.0928 60 39.5164C60 39.1276 59.4569 38.5512 59.0948 38.5512C58.9526 38.5512 55.7328 39.3019 51.9569 40.2269C48.181 41.1519 45.0517 41.8624 45 41.8087C44.9483 41.7551 44.0819 40.6156 43.0603 39.2885C42.0517 37.9613 41.1078 36.7683 40.9655 36.6342C40.7457 36.4465 40.4353 36.4063 38.9741 36.4063H37.2414V33.5241C37.2414 30.6285 37.2414 30.6285 36.9181 30.3068C36.6595 30.0253 36.4784 29.9717 35.8836 29.9717H35.1724V27.0895C35.1724 24.1939 35.1724 24.1939 34.8491 23.8721C34.5517 23.5504 34.4741 23.537 32.7802 23.537H31.0345V19.0462V14.5419L30.7112 14.2202C30.5172 14.0057 30.2457 13.885 30 13.885C29.7543 13.885 29.4828 14.0057 29.2888 14.2202ZM33.1034 27.8268V29.9717H31.0345H28.9655V27.8268V25.6819H31.0345H33.1034V27.8268ZM18.6207 34.2614V36.4063H16.5517H14.4828V34.2614V32.1165H16.5517H18.6207V34.2614ZM35.1724 34.2614V36.4063H31.0345H26.8966V34.2614V32.1165H31.0345H35.1724V34.2614ZM41.25 40.3877C42.0259 41.4066 42.6724 42.2913 42.6724 42.3718C42.6983 42.7873 41.3664 42.8276 26.3534 42.841H11.3793V40.6961V38.5512H25.6034H39.8276L41.25 40.3877Z" fill="#FF66FF"/>
<path d="M1.33189 54.9863C1.03447 55.2947 1.00861 55.4019 1.07327 56.099C1.18965 57.5602 2.14654 58.941 3.45258 59.5576C4.84913 60.2279 6.28447 60.067 7.61637 59.1286L8.27585 58.6594L8.93534 59.1286C10.5259 60.2547 12.2327 60.2547 13.8233 59.1286L14.4828 58.6594L15.1422 59.1286C15.8664 59.6381 16.8621 60 17.5862 60C18.3103 60 19.306 59.6381 20.0302 59.1286L20.6896 58.6594L21.3491 59.1286C22.9396 60.2547 24.6465 60.2547 26.2371 59.1286L26.8965 58.6594L27.556 59.1286C29.1465 60.2547 30.8534 60.2547 32.444 59.1286L33.1034 58.6594L33.7629 59.1286C35.3534 60.2547 37.0603 60.2547 38.6509 59.1286L39.3103 58.6594L39.9698 59.1286C40.694 59.6381 41.6896 60 42.4138 60C43.1379 60 44.1336 59.6381 44.8578 59.1286L45.5172 58.6594L46.1767 59.1286C46.9009 59.6381 47.8965 60 48.6207 60C49.3448 60 50.3405 59.6381 51.0646 59.1286L51.7241 58.6594L52.3836 59.1286C53.7155 60.067 55.1509 60.2279 56.5474 59.5576C57.8534 58.941 58.7715 57.6138 58.9138 56.1258C58.9914 55.3885 58.9784 55.3081 58.6681 54.9863C57.944 54.2356 57.0646 54.6646 56.8836 55.8443C56.6896 57.1312 55.9914 57.7881 54.8276 57.7881C53.6638 57.7881 52.9655 57.1312 52.7715 55.8443C52.6422 55.0266 52.306 54.6378 51.7241 54.6378C51.1422 54.6378 50.806 55.0266 50.6767 55.8443C50.4828 57.1312 49.7845 57.7881 48.6207 57.7881C47.4569 57.7881 46.7586 57.1312 46.5646 55.8443C46.4353 55.0266 46.0991 54.6378 45.5172 54.6378C44.9353 54.6378 44.5991 55.0266 44.4698 55.8443C44.2759 57.1312 43.5776 57.7881 42.4138 57.7881C41.25 57.7881 40.5517 57.1312 40.3578 55.8443C40.2284 55.0266 39.8922 54.6378 39.3103 54.6378C38.7284 54.6378 38.3922 55.0266 38.2629 55.8443C38.069 57.1312 37.3707 57.7881 36.2069 57.7881C35.0431 57.7881 34.3448 57.1312 34.1509 55.8443C34.0215 55.0266 33.6853 54.6378 33.1034 54.6378C32.5215 54.6378 32.1853 55.0266 32.056 55.8443C31.8621 57.1312 31.1638 57.7881 30 57.7881C28.8362 57.7881 28.1379 57.1312 27.944 55.8443C27.8146 55.0266 27.4784 54.6378 26.8965 54.6378C26.3146 54.6378 25.9784 55.0266 25.8491 55.8443C25.6552 57.1312 24.9569 57.7881 23.7931 57.7881C22.6293 57.7881 21.931 57.1312 21.7371 55.8443C21.6078 55.0266 21.2715 54.6378 20.6896 54.6378C20.1078 54.6378 19.7715 55.0266 19.6422 55.8443C19.4483 57.1312 18.75 57.7881 17.5862 57.7881C16.4224 57.7881 15.7241 57.1312 15.5302 55.8443C15.4009 55.0266 15.0646 54.6378 14.4828 54.6378C13.9009 54.6378 13.5646 55.0266 13.4353 55.8443C13.2414 57.1312 12.5431 57.7881 11.3793 57.7881C10.2155 57.7881 9.51723 57.1312 9.32327 55.8443C9.19396 55.0266 8.85775 54.6378 8.27585 54.6378C7.69396 54.6378 7.35775 55.0266 7.22844 55.8443C7.03447 57.1312 6.3362 57.7881 5.17241 57.7881C4.00861 57.7881 3.31034 57.1312 3.11637 55.8443C2.93534 54.6646 2.05603 54.2356 1.33189 54.9863Z" fill="#FF66FF"/>
</svg>
