<svg width="71" height="48" viewBox="0 0 71 48" fill="none" xmlns="http://www.w3.org/2000/svg">
<path d="M32.6844 0.289507L32.3234 0.58603V7.0354V13.4699L31.9484 13.5589C31.3929 13.7072 30.5319 14.1816 29.9347 14.6857C29.6431 14.9229 28.7265 16.2128 27.8794 17.5471L26.3517 19.9638L25.4907 20.0527C25.0047 20.0972 24.1436 20.1714 23.5742 20.2158C21.9772 20.3641 19.658 20.8237 17.7415 21.3871C16.7833 21.6688 15.9917 21.8764 15.9917 21.8764C15.9778 21.8615 14.714 19.8155 13.1586 17.3247C11.6171 14.8339 10.2145 12.6545 10.0617 12.4618C9.78397 12.1504 9.70065 12.1356 7.24256 12.1356H4.70115L4.4234 12.5211C4.13177 12.9065 4.13177 13.0696 4.13177 19.5338V26.1611L2.99299 26.5614C2.35417 26.7838 1.64591 27.0952 1.40982 27.2434C-0.00670291 28.1775 -0.437215 30.3569 0.493246 31.8395C1.00708 32.655 1.34038 32.8773 2.81246 33.4259L4.06233 33.8855L4.13177 40.6462C4.2012 46.888 4.21509 47.4366 4.45118 47.6738C4.65949 47.8962 5.00668 47.9407 6.8676 47.9852C8.07581 48.0148 9.25625 48 9.50622 47.9407C9.93673 47.8517 10.2006 47.4811 12.9781 43.0332C15.5473 38.9264 16.0333 38.2148 16.2833 38.2741C16.4361 38.3185 17.4082 38.5854 18.4498 38.8671C22.4632 39.9791 20.9773 39.9198 43.0445 39.9642C65.2089 40.0235 63.7368 40.0828 65.8894 38.9561C68.0697 37.7996 69.8196 35.635 70.5973 33.0997C70.9444 31.9581 71 31.5578 71 30.0752C71 27.1545 70.1945 25.1085 68.2364 23.0328C67.0282 21.7429 65.9172 21.0313 64.1951 20.4234C63.2508 20.0972 63.0425 20.0824 57.1542 20.0231L51.0853 19.9786L51.0437 16.9986L51.002 14.0333L50.6132 13.6775C50.2521 13.3513 50.1132 13.3217 48.5717 13.3217H46.933L46.8774 10.3416L46.8358 7.36157L46.4469 7.00575C45.9748 6.57579 45.6692 6.56096 45.1832 6.96127L44.8221 7.25779V10.2971V13.3217H41.6974H38.5866L38.5449 7.00575L38.5033 0.689813L38.1144 0.333986C37.6423 -0.0959722 37.3367 -0.110798 36.8507 0.289507L36.4896 0.58603V6.96127V13.3217H35.448H34.4204L34.3787 7.00575L34.337 0.689813L33.9482 0.333986C33.476 -0.0959722 33.1705 -0.110798 32.6844 0.289507ZM11.3949 18.496L13.978 22.6473L10.2006 23.9817C8.11747 24.723 6.38154 25.3308 6.3121 25.3308C6.25655 25.3308 6.21489 22.8549 6.21489 19.8452V14.3595H7.50643H8.81185L11.3949 18.496ZM48.9606 17.7992L49.0022 19.9934H38.9755C29.9486 19.9934 28.9626 19.9638 29.0459 19.7562C29.282 19.1039 31.1151 16.4796 31.5179 16.2128C32.5039 15.5752 32.6011 15.5604 40.9336 15.5901L48.9189 15.6197L48.9606 17.7992ZM63.0425 22.4397C65.2922 22.9438 67.2365 24.5451 68.1947 26.6652C68.4725 27.2731 68.7363 27.9995 68.778 28.2516L68.8752 28.7409H45.9748C30.6846 28.7409 22.8799 28.6816 22.4632 28.5778C21.5189 28.3554 20.2412 27.6289 19.4219 26.8579C18.6025 26.1018 17.2277 24.041 17.4221 23.8334C17.7693 23.4628 22.6716 22.4694 24.8241 22.3211C25.2407 22.2915 33.8093 22.2618 43.85 22.247C59.2234 22.2322 62.2648 22.2618 63.0425 22.4397ZM16.0611 25.998C17.186 27.8216 18.5331 29.156 20.019 29.9269C22.1438 31.0389 20.2135 30.9648 45.8359 30.9648H68.8891L68.7919 31.6616C68.653 32.7884 67.8198 34.4341 66.8338 35.5016C65.8894 36.5246 64.5007 37.3548 63.2369 37.6365C62.7369 37.7403 56.4737 37.7848 42.9473 37.7551C23.477 37.7107 23.352 37.6958 21.6994 37.3845C19.1441 36.8804 18.3664 36.6284 10.2423 33.7669C2.32639 30.9648 2.04864 30.8313 2.04864 30.0159C2.04864 29.838 2.13197 29.5563 2.24307 29.408C2.36806 29.2153 4.45118 28.3999 8.72852 26.8728C12.2004 25.6274 15.0751 24.6044 15.1168 24.6044C15.1584 24.5895 15.5889 25.2271 16.0611 25.998ZM10.2145 36.0798C12.6865 36.9545 13.853 37.429 13.8252 37.5624C13.7975 37.6662 12.6587 39.5639 11.2838 41.773L8.78407 45.7909H7.50643H6.21489V40.2163C6.21489 35.8129 6.25655 34.6565 6.39543 34.701C6.47875 34.7454 8.2008 35.3533 10.2145 36.0798Z" fill="#FF6666"/>
<path d="M41.0169 24.7526C40.2948 25.3605 40.6975 26.6652 41.628 26.6652C42.5584 26.6652 42.9612 25.3605 42.239 24.7526C42.0307 24.5747 41.7668 24.4412 41.628 24.4412C41.4891 24.4412 41.2252 24.5747 41.0169 24.7526Z" fill="#FF6666"/>
<path d="M45.1831 24.7526C44.461 25.3605 44.8637 26.6652 45.7942 26.6652C46.7246 26.6652 47.1274 25.3605 46.4052 24.7526C46.1969 24.5747 45.933 24.4412 45.7942 24.4412C45.6553 24.4412 45.3914 24.5747 45.1831 24.7526Z" fill="#FF6666"/>
<path d="M49.3494 24.7526C48.6272 25.3605 49.03 26.6652 49.9604 26.6652C50.8909 26.6652 51.2936 25.3605 50.5715 24.7526C50.3632 24.5747 50.0993 24.4412 49.9604 24.4412C49.8216 24.4412 49.5577 24.5747 49.3494 24.7526Z" fill="#FF6666"/>
<path d="M53.5157 24.7526C52.7935 25.3605 53.1962 26.6652 54.1267 26.6652C55.0572 26.6652 55.4599 25.3605 54.7378 24.7526C54.5294 24.5747 54.2656 24.4412 54.1267 24.4412C53.9878 24.4412 53.724 24.5747 53.5157 24.7526Z" fill="#FF6666"/>
<path d="M57.6819 24.7526C56.9597 25.3605 57.3624 26.6652 58.2929 26.6652C59.2234 26.6652 59.6261 25.3605 58.904 24.7526C58.6956 24.5747 58.4318 24.4412 58.2929 24.4412C58.154 24.4412 57.8902 24.5747 57.6819 24.7526Z" fill="#FF6666"/>
</svg>
